<?xml version="1.0" encoding="utf-8"?>
<!-- Generator: Adobe Illustrator 26.0.1, SVG Export Plug-In . SVG Version: 6.00 Build 0)  -->
<svg version="1.1" id="_x31_0" xmlns="http://www.w3.org/2000/svg" xmlns:xlink="http://www.w3.org/1999/xlink" x="0px" y="0px"
	 viewBox="0 0 512 512" style="enable-background:new 0 0 512 512;" xml:space="preserve">
<g>
	<path d="M256,0C114.64,0,0,114.64,0,256c0,141.36,114.64,256,256,256s256-114.64,256-256C512,114.64,397.36,0,256,0z M217.52,412
		V270.27v-0.43l0,0v-0.16h-47.84v-55.44h47.84v-40.88c0-14.77,2.81-27.44,7.95-37.9c0.21-0.43,0.46-0.83,0.68-1.25
		c0.82-1.58,1.67-3.13,2.59-4.61c0.45-0.71,0.95-1.36,1.42-2.05c0.8-1.16,1.59-2.33,2.46-3.42c0.53-0.66,1.11-1.27,1.66-1.91
		c0.92-1.06,1.83-2.13,2.82-3.12c0.44-0.43,0.91-0.82,1.36-1.25c1.21-1.14,2.43-2.27,3.73-3.3c0.16-0.12,0.32-0.23,0.48-0.35
		c12.07-9.35,27.88-14.21,46.2-14.21c20.24,0,37.68,1.52,42.8,2.24v49.6h-29.36c-23.04,0-27.52,10.96-27.52,26.96v35.17v0.11l0,0
		v0.16H324l5.67,0.02l-7.12,55.42H275.1h-0.14l0,0h-0.16v142.05V412h-57.26H217.52z"/>
</g>
</svg>
