<?xml version="1.0" encoding="utf-8"?>
<!-- Generator: Adobe Illustrator 26.0.1, SVG Export Plug-In . SVG Version: 6.00 Build 0)  -->
<svg version="1.1" id="_x31_0" xmlns="http://www.w3.org/2000/svg" xmlns:xlink="http://www.w3.org/1999/xlink" x="0px" y="0px"
	 viewBox="0 0 512 512" style="enable-background:new 0 0 512 512;" xml:space="preserve">
<g>
	<path d="M363.02,0H148.98C69.06,0,4.28,64.78,4.28,144.7V367.3c0,79.91,64.78,144.7,144.69,144.7h214.05
		c79.91,0,144.7-64.78,144.7-144.7V144.69C507.72,64.78,442.94,0,363.02,0z M55.65,144.7c0-51.46,41.86-93.32,93.32-93.32h214.05
		c51.46,0,93.32,41.86,93.32,93.32V367.3c0,51.46-41.86,93.32-93.32,93.32H148.98c-51.46,0-93.32-41.86-93.32-93.32V144.7z"/>
	<path d="M256,387.85c72.7,0,131.85-59.15,131.85-131.85S328.7,124.14,256,124.14c-72.7,0-131.85,59.15-131.85,131.86
		S183.3,387.85,256,387.85z M256,165.24c50.04,0,90.75,40.71,90.75,90.76s-40.71,90.76-90.75,90.76
		c-50.04,0-90.75-40.71-90.75-90.76S205.96,165.24,256,165.24z"/>
	<ellipse cx="391.71" cy="120.3" rx="29.54" ry="29.54"/>
</g>
</svg>
