<?xml version="1.0" encoding="utf-8"?>
<!-- Generator: Adobe Illustrator 26.0.1, SVG Export Plug-In . SVG Version: 6.00 Build 0)  -->
<svg version="1.1" id="レイヤー_1" xmlns="http://www.w3.org/2000/svg" xmlns:xlink="http://www.w3.org/1999/xlink" x="0px"
	 y="0px" viewBox="0 0 500 500" style="enable-background:new 0 0 500 500;" xml:space="preserve">
<style type="text/css">
	.st0{fill:#A58C3D;}
	.st1{fill:none;stroke:#A58C3D;stroke-width:30;stroke-miterlimit:10;}
</style>
<g>
	<path class="st0" d="M250,30c29.71,0,58.52,5.81,85.62,17.28c26.19,11.08,49.72,26.95,69.94,47.16
		c20.21,20.21,36.08,43.74,47.16,69.94C464.19,191.48,470,220.29,470,250s-5.81,58.52-17.28,85.62
		c-11.08,26.19-26.95,49.72-47.16,69.94c-20.21,20.21-43.74,36.08-69.94,47.16C308.52,464.19,279.71,470,250,470
		s-58.52-5.81-85.62-17.28c-26.19-11.08-49.72-26.95-69.94-47.16c-20.21-20.21-36.08-43.74-47.16-69.94
		C35.81,308.52,30,279.71,30,250s5.81-58.52,17.28-85.62c11.08-26.19,26.95-49.72,47.16-69.94s43.74-36.08,69.94-47.16
		C191.48,35.81,220.29,30,250,30 M250,0C111.93,0,0,111.93,0,250s111.93,250,250,250s250-111.93,250-250S388.07,0,250,0L250,0z"/>
</g>
<g>
	<path class="st0" d="M220,108.54V220H108.54V108.54H220 M250,78.54H78.54V250H250V78.54L250,78.54z"/>
</g>
<g>
	<path class="st0" d="M391.21,279.75v111.46H279.75V279.75H391.21 M421.21,249.75H249.75v171.46h171.46V249.75L421.21,249.75z"/>
</g>
<g>
	<line class="st1" x1="73.22" y1="73.22" x2="426.28" y2="426.28"/>
</g>
<g>
	<line class="st1" x1="426.28" y1="73.22" x2="73.22" y2="426.28"/>
</g>
</svg>
